<?xml version="1.0" encoding="utf-8"?>
<!-- Generator: Adobe Illustrator 16.0.3, SVG Export Plug-In . SVG Version: 6.00 Build 0)  -->
<!DOCTYPE svg PUBLIC "-//W3C//DTD SVG 1.0//EN" "http://www.w3.org/TR/2001/REC-SVG-20010904/DTD/svg10.dtd">
<svg version="1.0" id="Layer_1" xmlns="http://www.w3.org/2000/svg" xmlns:xlink="http://www.w3.org/1999/xlink" x="0px" y="0px"
	 width="58px" height="66px" viewBox="0 0 58 66" enable-background="new 0 0 58 66" xml:space="preserve">
<path fill="#86888A" stroke="#86888A" stroke-width="3" stroke-miterlimit="10" d="M56.566,47.073
	c-0.575,1.126-1.216,2.215-1.923,3.264"/>
<path fill="#86888A" stroke="#86888A" stroke-width="3" stroke-miterlimit="10" d="M54.367,50.738
	c-0.722,1.036-1.508,2.027-2.352,2.967"/>
<path fill="#86888A" stroke="#86888A" stroke-width="3" stroke-miterlimit="10" d="M51.688,54.065
	c-0.857,0.927-1.773,1.801-2.738,2.616"/>
<path fill="#86888A" stroke="#86888A" stroke-width="3" stroke-miterlimit="10" d="M48.575,56.993
	c-0.977,0.8-2.004,1.539-3.072,2.214"/>
<path fill="#86888A" stroke="#86888A" stroke-width="3" stroke-miterlimit="10" d="M45.09,59.462
	c-1.078,0.659-2.197,1.251-3.348,1.773"/>
<path fill="#86888A" stroke="#86888A" stroke-width="3" stroke-miterlimit="10" d="M41.299,61.433
	c-1.159,0.504-2.35,0.935-3.559,1.294"/>
<path fill="#86888A" stroke="#86888A" stroke-width="3" stroke-miterlimit="10" d="M37.272,62.861
	c-1.219,0.339-2.455,0.604-3.705,0.793"/>
<path fill="#86888A" stroke="#86888A" stroke-width="3" stroke-miterlimit="10" d="M33.086,63.723
	c-1.251,0.167-2.512,0.26-3.776,0.276"/>
<path fill="#86888A" stroke="#86888A" stroke-width="3" stroke-miterlimit="10" d="M28.822,64c-1.263-0.004-2.524-0.087-3.779-0.246
	"/>
<path fill="#86888A" stroke="#86888A" stroke-width="3" stroke-miterlimit="10" d="M24.562,63.689
	c-1.252-0.179-2.491-0.435-3.709-0.764"/>
<path fill="#86888A" stroke="#86888A" stroke-width="3" stroke-miterlimit="10" d="M20.385,62.795
	c-1.216-0.35-2.407-0.772-3.57-1.267"/>
<path fill="#86888A" stroke="#86888A" stroke-width="3" stroke-miterlimit="10" d="M16.369,61.333
	c-1.156-0.512-2.279-1.095-3.361-1.744"/>
<path fill="#86888A" stroke="#86888A" stroke-width="3" stroke-miterlimit="10" d="M12.592,59.337
	c-1.072-0.667-2.105-1.398-3.089-2.19"/>
<path fill="#86888A" stroke="#86888A" stroke-width="3" stroke-miterlimit="10" d="M9.125,56.838
	c-0.971-0.807-1.893-1.674-2.757-2.594"/>
<path fill="#86888A" stroke="#86888A" stroke-width="3" stroke-miterlimit="10" d="M6.036,53.886
	c-0.851-0.933-1.644-1.918-2.375-2.949"/>
<path fill="#86888A" stroke="#86888A" stroke-width="3" stroke-miterlimit="10" d="M3.383,50.538
	c-0.716-1.042-1.365-2.128-1.949-3.247"/>
<path fill="#86888A" stroke="#86888A" stroke-width="3" stroke-miterlimit="10" d="M1.434,18.709
	c0.584-1.12,1.233-2.206,1.949-3.247"/>
<path fill="#86888A" stroke="#86888A" stroke-width="3" stroke-miterlimit="10" d="M3.661,15.063
	c0.731-1.031,1.524-2.016,2.375-2.949"/>
<path fill="#86888A" stroke="#86888A" stroke-width="3" stroke-miterlimit="10" d="M6.368,11.757
	c0.864-0.919,1.786-1.787,2.757-2.594"/>
<path fill="#86888A" stroke="#86888A" stroke-width="3" stroke-miterlimit="10" d="M9.503,8.855
	c0.983-0.794,2.017-1.525,3.089-2.192"/>
<path fill="#86888A" stroke="#86888A" stroke-width="3" stroke-miterlimit="10" d="M13.008,6.409
	c1.082-0.648,2.205-1.23,3.361-1.743"/>
<path fill="#86888A" stroke="#86888A" stroke-width="3" stroke-miterlimit="10" d="M16.814,4.472
	c1.163-0.495,2.354-0.916,3.57-1.267"/>
<path fill="#86888A" stroke="#86888A" stroke-width="3" stroke-miterlimit="10" d="M20.853,3.075
	c1.218-0.33,2.457-0.584,3.709-0.763"/>
<path fill="#86888A" stroke="#86888A" stroke-width="3" stroke-miterlimit="10" d="M25.043,2.247C26.298,2.087,27.56,2.005,28.822,2
	"/>
<path fill="#86888A" stroke="#86888A" stroke-width="3" stroke-miterlimit="10" d="M29.31,2.001
	c1.265,0.016,2.525,0.108,3.778,0.276"/>
<path fill="#86888A" stroke="#86888A" stroke-width="3" stroke-miterlimit="10" d="M33.567,2.346
	c1.25,0.188,2.486,0.454,3.705,0.793"/>
<path fill="#86888A" stroke="#86888A" stroke-width="3" stroke-miterlimit="10" d="M37.74,3.273
	c1.209,0.359,2.399,0.791,3.559,1.293"/>
<path fill="#86888A" stroke="#86888A" stroke-width="3" stroke-miterlimit="10" d="M41.742,4.765
	c1.151,0.521,2.27,1.114,3.348,1.771"/>
<path fill="#86888A" stroke="#86888A" stroke-width="3" stroke-miterlimit="10" d="M45.503,6.793
	c1.068,0.674,2.096,1.414,3.072,2.214"/>
<path fill="#86888A" stroke="#86888A" stroke-width="3" stroke-miterlimit="10" d="M48.949,9.32
	c0.965,0.813,1.881,1.688,2.739,2.614"/>
<path fill="#86888A" stroke="#86888A" stroke-width="3" stroke-miterlimit="10" d="M52.016,12.294
	c0.844,0.94,1.63,1.931,2.352,2.968"/>
<path fill="#86888A" stroke="#86888A" stroke-width="3" stroke-miterlimit="10" d="M54.644,15.663
	c0.707,1.048,1.348,2.138,1.923,3.264"/>
<circle fill="#86888A" cx="14.309" cy="42.114" r="0.898"/>
<circle fill="#86888A" cx="5.181" cy="24.328" r="0.539"/>
<circle fill="#86888A" cx="20.69" cy="34.761" r="2.634"/>
<circle fill="#86888A" cx="29.689" cy="34.04" r="3.583"/>
<circle fill="#86888A" cx="21.505" cy="29.329" r="2.176"/>
<circle fill="#86888A" cx="20.429" cy="21.2" r="4.403"/>
<circle fill="#86888A" cx="34.014" cy="20.882" r="3.454"/>
<circle fill="#86888A" cx="32.975" cy="25.662" r="0.735"/>
<circle fill="#86888A" cx="30.086" cy="27.696" r="0.473"/>
<circle fill="#86888A" cx="34.196" cy="28.139" r="1.358"/>
<circle fill="#86888A" cx="25.021" cy="28.069" r="0.866"/>
<circle fill="#86888A" cx="31.081" cy="25.842" r="0.473"/>
<circle fill="#86888A" cx="29.398" cy="25.539" r="0.538"/>
<circle fill="#86888A" cx="28.933" cy="27.396" r="0.539"/>
<circle fill="#86888A" cx="47.258" cy="29.339" r="0.636"/>
<circle fill="#86888A" cx="7.476" cy="34.316" r="0.768"/>
<circle fill="#86888A" cx="9.603" cy="28.841" r="1.193"/>
<circle fill="#86888A" cx="25.657" cy="23.402" r="0.604"/>
<circle fill="#86888A" cx="8.207" cy="36.458" r="0.8"/>
<circle fill="#86888A" cx="48.228" cy="23.705" r="1.881"/>
<circle fill="#86888A" cx="31.354" cy="29.63" r="1.096"/>
<circle fill="#86888A" cx="26.781" cy="38.064" r="0.604"/>
<circle fill="#86888A" cx="33.215" cy="30.918" r="0.506"/>
<circle fill="#86888A" cx="26.838" cy="25.852" r="1.325"/>
<circle fill="#86888A" cx="37.021" cy="30.153" r="1.03"/>
<circle fill="#86888A" cx="17.379" cy="28.712" r="1.325"/>
<circle fill="#86888A" cx="35.674" cy="32.082" r="0.538"/>
<circle fill="#86888A" cx="34.878" cy="30.577" r="0.474"/>
<circle fill="#86888A" cx="28.876" cy="38.783" r="0.505"/>
<circle fill="#86888A" cx="24.304" cy="25.355" r="0.44"/>
<circle fill="#86888A" cx="10.466" cy="47.407" r="0.768"/>
<circle fill="#86888A" cx="27.315" cy="28.698" r="0.833"/>
<circle fill="#86888A" cx="4.422" cy="32.654" r="1.423"/>
<circle fill="#86888A" cx="53.333" cy="44.778" r="0.768"/>
<circle fill="#86888A" cx="54.672" cy="29.191" r="0.997"/>
<circle fill="#86888A" cx="52.181" cy="29.451" r="0.703"/>
<circle fill="#86888A" cx="10.498" cy="37.462" r="0.538"/>
<circle fill="#86888A" cx="12.574" cy="47.925" r="0.735"/>
<circle fill="#86888A" cx="34.538" cy="33.429" r="0.539"/>
<circle fill="#86888A" cx="23.972" cy="36.722" r="0.473"/>
<circle fill="#86888A" cx="27.678" cy="21.666" r="0.636"/>
<circle fill="#86888A" cx="14.023" cy="46.681" r="0.473"/>
<circle fill="#86888A" cx="13.464" cy="44.413" r="0.44"/>
<circle fill="#86888A" cx="29.338" cy="22.464" r="0.506"/>
<circle fill="#86888A" cx="27.646" cy="23.501" r="0.474"/>
<circle fill="#86888A" cx="25.647" cy="36.581" r="0.474"/>
<circle fill="#86888A" cx="30.741" cy="45.67" r="0.44"/>
<circle fill="#86888A" cx="26.142" cy="30.393" r="0.505"/>
<circle fill="#86888A" cx="37.375" cy="32.595" r="0.506"/>
<circle fill="#86888A" cx="24.842" cy="32.935" r="0.539"/>
<circle fill="#86888A" cx="31.645" cy="27.385" r="0.44"/>
<circle fill="#86888A" cx="9.332" cy="39.067" r="0.768"/>
</svg>
