<?xml version="1.0" encoding="utf-8"?>
<!-- Generator: Adobe Illustrator 16.0.3, SVG Export Plug-In . SVG Version: 6.00 Build 0)  -->
<!DOCTYPE svg PUBLIC "-//W3C//DTD SVG 1.0//EN" "http://www.w3.org/TR/2001/REC-SVG-20010904/DTD/svg10.dtd">
<svg version="1.0" id="Layer_1" xmlns="http://www.w3.org/2000/svg" xmlns:xlink="http://www.w3.org/1999/xlink" x="0px" y="0px"
	 width="96px" height="20px" viewBox="0 0 96 20" enable-background="new 0 0 96 20" xml:space="preserve">
<g>
	<path fill="#86888A" d="M14.424,9.564c1.472,0,2.244,0.869,2.244,2.176v4.015c0,1.705-0.303,2.61-1.943,3.044
		c-1.738,0.436-3.446,0.771-5.051,0.771c-5.521,0-9.235-3.18-9.235-9.534c0-6.394,3.85-9.604,9.135-9.604h6.393v3.479H9.909
		c-3.313,0-5.423,1.807-5.423,6.19c0,4.382,2.109,6.322,5.487,6.322c1.105,0,1.977-0.032,3.013-0.267v-3.713H9.138V9.564H14.424z
		 M28.611,2.305l5.688,16.696h-4.182l-1.07-3.38h-6.791l-1.239,3.38h-4.018l5.857-16.696c0.433-1.242,1.371-1.874,2.846-1.874
		C27.172,0.431,28.142,1.062,28.611,2.305z M28.274,12.643L25.565,4.48l-2.607,8.162H28.274z M38.615,15.755h8.23v3.246H36.842
		c-1.606,0-2.409-0.737-2.409-2.245V0.53h4.183V15.755z M47.75,0.53h4.08v18.471h-4.08V0.53z M56.985,15.755h8.363v3.246H55.212
		c-1.438,0-2.311-0.77-2.311-2.245V0.53h4.084V15.755z M70.4,15.954h9.034v3.047H68.695c-1.472,0-2.376-0.77-2.376-2.245V2.738
		c0-1.371,0.904-2.208,2.376-2.208h10.637v3.111H70.4V8.16h7.763v2.909H70.4V15.954z M95.562,0.53v11.711
		c0,4.45-2.779,7.093-7.729,7.093c-4.954,0-7.663-2.643-7.663-7.093V0.53h4.083v11.912c0,2.344,1.205,3.512,3.58,3.512
		c2.441,0,3.647-1.168,3.647-3.512V0.53H95.562z"/>
</g>
</svg>
